<svg width="301" height="135" viewBox="0 0 301 135" fill="none" xmlns="http://www.w3.org/2000/svg">
  <g filter="url(#filter0_f_2_3674)">
    <path
      d="M117.5 45L190.5 73M121.5 43.5L192.5 70L198 63M204.5 47.5L207.5 50.5L202.75 56.75M204.5 47.5L201.5 51.5M204.5 47.5C203.444 47.5 199.139 45.7591 195.087 44M201.5 51.5L202.75 56.75M201.5 51.5C196.667 49.8333 186.8 46.3 186 45.5M202.75 56.75L198 63M202.75 56.75L200 54M198 63L197 57.5M197 57.5L200 54M197 57.5C190.864 55.5694 187.472 54.2456 181.5 51.5M200 54C193.921 51.5825 190.527 50.1633 184.5 47.5L181.5 51.5M181.5 51.5L181 53.5M186 45.5L189.5 41.5C190.975 42.1806 192.997 43.0927 195.087 44M186 45.5L185.5 47.5M202 44C200.083 43.5 196.8 42.3 196 41.5M196 41.5L199 37.5C200.833 38.3333 202.75 39.5 205 40M196 41.5L195.087 44M206.5 37.5C203.167 36.5 197.4 34.3 197 33.5M197 33.5L199.5 30.5C200.667 31 202.9 32.1 204.5 32.5M197 33.5L196.5 37L198 37.75"
      stroke="black" stroke-width="0.5" stroke-linecap="round" />
    <path
      d="M196.816 36.299L194.438 40.3726M196.816 36.299L191.612 34.2947L188.543 38.0646M196.816 36.299L197.876 38.2679M194.438 40.3726L188.543 38.0646M194.438 40.3726L195.528 43.341M188.543 38.0646L187.941 40.5688L189.97 41.508"
      stroke="black" stroke-width="0.5" stroke-linecap="round" />
    <path
      d="M189.528 33.4771L187.15 37.5507M189.528 33.4771L184.324 31.4728L181.255 35.2427M189.528 33.4771L190.588 35.446M187.15 37.5507L181.255 35.2427M187.15 37.5507L188.24 40.5191M181.255 35.2427L180.653 37.7469L187.441 40.5838"
      stroke="black" stroke-width="0.5" stroke-linecap="round" />
    <path
      d="M181.441 30.7199L179.063 34.7936M181.441 30.7199L176.237 28.7156L173.168 32.4855M181.441 30.7199L182.501 32.6888M179.063 34.7936L173.168 32.4855M179.063 34.7936L180.153 37.762M173.168 32.4855L172.566 34.9897L179.354 37.8267"
      stroke="black" stroke-width="0.5" stroke-linecap="round" />
    <path
      d="M173.354 27.9627L170.976 32.0364M173.354 27.9627L168.15 25.9584L165.081 29.7283M173.354 27.9627L174.414 29.9316M170.976 32.0364L165.081 29.7283M170.976 32.0364L172.066 35.0048M165.081 29.7283L164.479 32.2325L171.267 35.0695"
      stroke="black" stroke-width="0.5" stroke-linecap="round" />
    <path
      d="M165.267 25.2055L162.889 29.2792M165.267 25.2055L160.063 23.2012L156.994 26.9711M165.267 25.2055L166.327 27.1744M162.889 29.2792L156.994 26.9711M162.889 29.2792L163.979 32.2476M156.994 26.9711L156.392 29.4753L163.18 32.3123"
      stroke="black" stroke-width="0.5" stroke-linecap="round" />
    <path
      d="M157.181 22.4484L154.802 26.522M157.181 22.4484L151.977 20.4441L148.907 24.214M157.181 22.4484L158.24 24.4173M154.802 26.522L148.907 24.214M154.802 26.522L155.893 29.4905M148.907 24.214L148.305 26.7182L155.093 29.5551"
      stroke="black" stroke-width="0.5" stroke-linecap="round" />
    <path
      d="M149.094 19.6912L146.716 23.7648M149.094 19.6912L143.89 17.6869L140.82 21.4568M149.094 19.6912L150.154 21.6601M146.716 23.7648L140.82 21.4568M146.716 23.7648L147.806 26.7333M140.82 21.4568L140.218 23.961L147.006 26.7979"
      stroke="black" stroke-width="0.5" stroke-linecap="round" />
    <path
      d="M141.007 16.934L138.629 21.0077M141.007 16.934L135.803 14.9297L132.733 18.6996M141.007 16.934L142.067 18.9029M138.629 21.0077L132.733 18.6996M138.629 21.0077L139.719 23.9761M132.733 18.6996L132.132 21.2038L138.92 24.0408"
      stroke="black" stroke-width="0.5" stroke-linecap="round" />
    <path
      d="M132.92 14.1768L130.542 18.2505M132.92 14.1768L127.716 12.1725L124.647 15.9424M132.92 14.1768L133.98 16.1457M130.542 18.2505L124.647 15.9424M130.542 18.2505L131.632 21.2189M124.647 15.9424L124.045 18.4466L130.833 21.2836"
      stroke="black" stroke-width="0.5" stroke-linecap="round" />
    <path
      d="M124.833 11.4197L122.455 15.4933M124.833 11.4197L120.171 9.7259L118.067 12.3105L117.102 13.4958M124.833 11.4197L125.893 13.3886M122.455 15.4933L117.102 13.4958M122.455 15.4933L123.545 18.4617M117.102 13.4958L116.5 16L122.746 18.5264M118 9.41537C117.6 9.41537 115.5 8.47181 114.5 8.00003L111.5 11.5M118 9.41537L115.5 13M118 9.41537L119 11M115.5 13L115.5 14.5M115.5 13L111.5 11.5M111.5 11.5L111 14"
      stroke="black" stroke-width="0.5" stroke-linecap="round" />
    <path
      d="M197.338 28.361L194.96 32.4347M197.338 28.361L192.134 26.3567L189.065 30.1266M197.338 28.361L198.398 30.3299M194.96 32.4347L189.065 30.1266M194.96 32.4347L196.05 35.4031M189.065 30.1266L188.463 32.6309L190.492 33.57"
      stroke="black" stroke-width="0.5" stroke-linecap="round" />
    <path
      d="M190.051 25.5391L187.672 29.6128M190.051 25.5391L184.847 23.5348L181.777 27.3047M190.051 25.5391L191.11 27.508M187.672 29.6128L181.777 27.3047M187.672 29.6128L188.763 32.5812M181.777 27.3047L181.175 29.809L187.963 32.6459"
      stroke="black" stroke-width="0.5" stroke-linecap="round" />
    <path
      d="M181.964 22.782L179.586 26.8556M181.964 22.782L176.76 20.7777L173.69 24.5476M181.964 22.782L183.024 24.7509M179.586 26.8556L173.69 24.5476M179.586 26.8556L180.676 29.8241M173.69 24.5476L173.089 27.0518L179.876 29.8888"
      stroke="black" stroke-width="0.5" stroke-linecap="round" />
    <path
      d="M173.877 20.0248L171.499 24.0984M173.877 20.0248L168.673 18.0205L165.603 21.7904M173.877 20.0248L174.937 21.9937M171.499 24.0984L165.603 21.7904M171.499 24.0984L172.589 27.0669M165.603 21.7904L165.002 24.2946L171.79 27.1316"
      stroke="black" stroke-width="0.5" stroke-linecap="round" />
    <path
      d="M165.79 17.2676L163.412 21.3412M165.79 17.2676L160.586 15.2633L157.517 19.0332M165.79 17.2676L166.85 19.2365M163.412 21.3412L157.517 19.0332M163.412 21.3412L164.502 24.3097M157.517 19.0332L156.915 21.5374L163.703 24.3744"
      stroke="black" stroke-width="0.5" stroke-linecap="round" />
    <path
      d="M157.703 14.5105L155.325 18.5841M157.703 14.5105L152.499 12.5062L149.43 16.2761M157.703 14.5105L158.763 16.4794M155.325 18.5841L149.43 16.2761M155.325 18.5841L156.415 21.5525M149.43 16.2761L148.828 18.7803L155.616 21.6172"
      stroke="black" stroke-width="0.5" stroke-linecap="round" />
    <path
      d="M149.616 11.7532L147.238 15.8269M149.616 11.7532L144.412 9.74896L141.343 13.5189M149.616 11.7532L150.676 13.7222M147.238 15.8269L141.343 13.5189M147.238 15.8269L148.328 18.7953M141.343 13.5189L140.741 16.0231L147.529 18.86"
      stroke="black" stroke-width="0.5" stroke-linecap="round" />
    <path
      d="M141.529 8.99611L139.151 13.0697M141.529 8.99611L136.325 6.99182L133.256 10.7617M141.529 8.99611L142.589 10.965M139.151 13.0697L133.256 10.7617M139.151 13.0697L140.241 16.0382M133.256 10.7617L132.654 13.2659L139.442 16.1029"
      stroke="black" stroke-width="0.5" stroke-linecap="round" />
    <path
      d="M133.442 6.23891L131.064 10.3125M133.442 6.23891L128.238 4.23462L125.169 8.00451M133.442 6.23891L134.502 8.20781M131.064 10.3125L125.169 8.00451M131.064 10.3125L132.154 13.281M125.169 8.00451L124.567 10.5087L131.355 13.3457"
      stroke="black" stroke-width="0.5" stroke-linecap="round" />
    <path
      d="M125.355 3.4817L122.977 7.55534M125.355 3.4817L120.151 1.47741L117.082 5.24731M125.355 3.4817L126.415 5.45061M122.977 7.55534L117.082 5.24731M122.977 7.55534L124.067 10.5238M117.082 5.24731L116.48 7.75152L123.268 10.5885"
      stroke="black" stroke-width="0.5" stroke-linecap="round" />
    <path
      d="M186.338 40.361L183.96 44.4347M186.338 40.361L181.134 38.3567L178.065 42.1266M186.338 40.361L187.398 42.3299M183.96 44.4347L178.065 42.1266M183.96 44.4347L185.05 47.4031M178.065 42.1266L177.463 44.6309L179.492 45.57"
      stroke="black" stroke-width="0.5" stroke-linecap="round" />
    <path
      d="M179.051 37.5391L176.672 41.6128M179.051 37.5391L173.847 35.5348L170.777 39.3047M179.051 37.5391L180.11 39.508M176.672 41.6128L170.777 39.3047M176.672 41.6128L177.763 44.5812M170.777 39.3047L170.175 41.809L176.963 44.6459"
      stroke="black" stroke-width="0.5" stroke-linecap="round" />
    <path
      d="M170.964 34.782L168.586 38.8556M170.964 34.782L165.76 32.7777L162.69 36.5476M170.964 34.782L172.024 36.7509M168.586 38.8556L162.69 36.5476M168.586 38.8556L169.676 41.8241M162.69 36.5476L162.089 39.0518L168.876 41.8888"
      stroke="black" stroke-width="0.5" stroke-linecap="round" />
    <path
      d="M162.877 32.0248L160.499 36.0984M162.877 32.0248L157.673 30.0205L154.603 33.7904M162.877 32.0248L163.937 33.9937M160.499 36.0984L154.603 33.7904M160.499 36.0984L161.589 39.0669M154.603 33.7904L154.002 36.2946L160.79 39.1316"
      stroke="black" stroke-width="0.5" stroke-linecap="round" />
    <path
      d="M154.79 29.2676L152.412 33.3412M154.79 29.2676L149.586 27.2633L146.517 31.0332M154.79 29.2676L155.85 31.2365M152.412 33.3412L146.517 31.0332M152.412 33.3412L153.502 36.3097M146.517 31.0332L145.915 33.5374L152.703 36.3744"
      stroke="black" stroke-width="0.5" stroke-linecap="round" />
    <path
      d="M146.703 26.5105L144.325 30.5841M146.703 26.5105L141.499 24.5062L138.43 28.2761M146.703 26.5105L147.763 28.4794M144.325 30.5841L138.43 28.2761M144.325 30.5841L145.415 33.5525M138.43 28.2761L137.828 30.7803L144.616 33.6172"
      stroke="black" stroke-width="0.5" stroke-linecap="round" />
    <path
      d="M138.616 23.7532L136.238 27.8269M138.616 23.7532L133.412 21.749L130.343 25.5189M138.616 23.7532L139.676 25.7222M136.238 27.8269L130.343 25.5189M136.238 27.8269L137.328 30.7953M130.343 25.5189L129.741 28.0231L136.529 30.86"
      stroke="black" stroke-width="0.5" stroke-linecap="round" />
    <path
      d="M130.529 20.9961L128.151 25.0697M130.529 20.9961L125.325 18.9918L122.256 22.7617M130.529 20.9961L131.589 22.965M128.151 25.0697L122.256 22.7617M128.151 25.0697L129.241 28.0382M122.256 22.7617L121.654 25.2659L128.442 28.1029"
      stroke="black" stroke-width="0.5" stroke-linecap="round" />
    <path
      d="M122.442 18.2389L120.064 22.3125M122.442 18.2389L117.238 16.2346L114.169 20.0045M122.442 18.2389L123.502 20.2078M120.064 22.3125L114.169 20.0045M120.064 22.3125L121.154 25.281M114.169 20.0045L113.567 22.5087L120.355 25.3457"
      stroke="black" stroke-width="0.5" stroke-linecap="round" />
    <path
      d="M114.355 15.4817L111.977 19.5553M114.355 15.4817L109.151 13.4774L106.082 17.2473M114.355 15.4817L115.415 17.4506M111.977 19.5553L106.082 17.2473M111.977 19.5553L113.067 22.5238M106.082 17.2473L105.48 19.7515L112.268 22.5885"
      stroke="black" stroke-width="0.5" stroke-linecap="round" />
    <path
      d="M175.338 44.361L172.96 48.4347M175.338 44.361L170.134 42.3567L167.065 46.1266M175.338 44.361L176.398 46.3299M172.96 48.4347L167.065 46.1266M172.96 48.4347L174.05 51.4031M167.065 46.1266L166.463 48.6309L168.492 49.57"
      stroke="black" stroke-width="0.5" stroke-linecap="round" />
    <path
      d="M168.051 41.5391L165.672 45.6128M168.051 41.5391L162.847 39.5348L159.777 43.3047M168.051 41.5391L169.11 43.508M165.672 45.6128L159.777 43.3047M165.672 45.6128L166.763 48.5812M159.777 43.3047L159.175 45.809L165.963 48.6459"
      stroke="black" stroke-width="0.5" stroke-linecap="round" />
    <path
      d="M159.964 38.782L157.586 42.8556M159.964 38.782L154.76 36.7777L151.69 40.5476M159.964 38.782L161.024 40.7509M157.586 42.8556L151.69 40.5476M157.586 42.8556L158.676 45.8241M151.69 40.5476L151.089 43.0518L157.876 45.8888"
      stroke="black" stroke-width="0.5" stroke-linecap="round" />
    <path
      d="M151.877 36.0248L149.499 40.0984M151.877 36.0248L146.673 34.0205L143.603 37.7904M151.877 36.0248L152.937 37.9937M149.499 40.0984L143.603 37.7904M149.499 40.0984L150.589 43.0669M143.603 37.7904L143.002 40.2946L149.79 43.1316"
      stroke="black" stroke-width="0.5" stroke-linecap="round" />
    <path
      d="M143.79 33.2676L141.412 37.3412M143.79 33.2676L138.586 31.2633L135.517 35.0332M143.79 33.2676L144.85 35.2365M141.412 37.3412L135.517 35.0332M141.412 37.3412L142.502 40.3097M135.517 35.0332L134.915 37.5374L141.703 40.3744"
      stroke="black" stroke-width="0.5" stroke-linecap="round" />
    <path d="M116 36.5L158.5 52.5L162 48.5L118.5 32.5L115 36.5" stroke="black" stroke-width="0.5"
      stroke-linecap="round" />
    <path
      d="M135.703 30.5105L133.325 34.5841M135.703 30.5105L130.499 28.5062L127.43 32.2761M135.703 30.5105L136.763 32.4794M133.325 34.5841L127.43 32.2761M133.325 34.5841L134.415 37.5525M127.43 32.2761L126.828 34.7803L133.616 37.6172"
      stroke="black" stroke-width="0.5" stroke-linecap="round" />
    <path
      d="M127.616 27.7532L125.238 31.8269M127.616 27.7532L122.412 25.749L119.343 29.5189M127.616 27.7532L128.676 29.7222M125.238 31.8269L119.343 29.5189M125.238 31.8269L126.328 34.7953M119.343 29.5189L118.741 32.0231L125.529 34.86"
      stroke="black" stroke-width="0.5" stroke-linecap="round" />
    <path
      d="M119.529 24.9961L117.151 29.0697M119.529 24.9961L114.325 22.9918L111.256 26.7617M119.529 24.9961L120.589 26.965M117.151 29.0697L111.256 26.7617M117.151 29.0697L118.241 32.0382M111.256 26.7617L110.654 29.2659L117.442 32.1029"
      stroke="black" stroke-width="0.5" stroke-linecap="round" />
    <path
      d="M111.442 22.2389L109.064 26.3125M111.442 22.2389L106.238 20.2346L103.169 24.0045M111.442 22.2389L112.502 24.2078M109.064 26.3125L103.169 24.0045M109.064 26.3125L110.154 29.281M103.169 24.0045L102.567 26.5087L109.355 29.3457"
      stroke="black" stroke-width="0.5" stroke-linecap="round" />
    <path d="M179 53L183 54.5M183 54.5L179.5 59L175.5 57.5M183 54.5L184 57.5" stroke="black" stroke-width="0.5"
      stroke-linecap="round" />
    <path
      d="M179.5 59V64M179.5 64L173 61.5M179.5 64L182.597 59.8713M192 64C189.333 63 183.7 60.8 182.5 60M192 64V68.5L181 64.5L182.5 60M192 64L195.5 60M182.5 60L185.5 56C191 58.5 192.5 59 195.5 60M195.5 60L197.5 62.5"
      stroke="black" stroke-width="0.5" stroke-linecap="round" />
    <path
      d="M123.5 78C124.5 77.1667 130 72.5 130.5 69.5C130.5 67.6667 130 61.5 130 57.5C130.5 55.1667 131.6 50.4 132 50C132.5 49.5 132.5 47.5 133 46.5C133.4 45.7 136.5 42.1667 138 40.5C138.833 39.8333 140.5 38.4 140.5 38V39C141.333 39.3333 142.8 40.4 142 42C141.335 43.3291 138.785 46.8202 136.985 49.2063C142.443 42.0822 152.243 30 154.5 30C157.029 30 160.98 30.3554 157.363 35.5611C160.238 32.1971 163.628 28.5 164.5 28.5C166 28.5 170.5 29.5 169.5 33C168.812 35.409 166.594 38.9776 165.138 41.0949C167.152 38.3067 170.566 34.1416 172 34.5C174 35 176 36.5 175.5 38.5C175.1 40.1 171.333 47.1667 169.5 50.5C171.333 49.3333 173.334 48.6664 174.5 47.5C175 47 178 42.5 179.5 42C180.561 41.6464 183.5 43.5 183 46C178 54.5 163.1 75.2 157.5 82L123.5 78Z"
      fill="#A3A3A3" />
    <path
      d="M127 74.5C128 73.6667 130.1 71.5 130.5 69.5C130.5 67.6667 130 61.5 130 57.5C130.5 55.1667 131.6 50.4 132 50C132.5 49.5 132.5 47.5 133 46.5C133.4 45.7 136.5 42.1667 138 40.5C138.833 39.8333 140.5 38.4 140.5 38C140.5 37.6 140.5 38.5 140.5 39C141.333 39.3333 142.8 40.4 142 42C141.2 43.6 137.667 48.3333 136 50.5C141.167 43.6667 152.1 30 154.5 30C157.5 30 162.5 30.5 154.5 39C157.333 35.5 163.3 28.5 164.5 28.5C166 28.5 170.5 29.5 169.5 33C168.7 35.8 165.833 40.1667 164.5 42C166.333 39.3333 170.4 34.1 172 34.5C174 35 176 36.5 175.5 38.5C175.1 40.1 171.333 47.1667 169.5 50.5C171.333 49.3333 173.334 48.6664 174.5 47.5C175 47 178 42.5 179.5 42C180.561 41.6464 183.5 43.5 183 46C178 54.5 167.1 69.7 161.5 76.5"
      stroke="black" stroke-width="0.5" stroke-linecap="round" stroke-linejoin="round" />
    <path
      d="M80 35C84 33.5 97.4 27.1 103 21.5C105.167 19.1667 109.8 14.5 111 14.5C112.465 14.5 116.96 14.7056 116.073 15.4459C117.453 14.4368 120.75 12.7142 123.5 13.5C127 14.5 133 17 132.5 20C135.833 22.3333 142 27.2 140 28C137.5 29 135.5 28 134 26.5C132.667 26.3333 129.9 25.8 129.5 25C127.5 26 123.3 27.9 122.5 27.5C120.333 29.6667 115.8 34.1 115 34.5C115.167 35.5 115.4 37.5 115 37.5C115 37.5 117 38 118 37.5C119 37 123 35.5 125.5 35.5C127.5 35.5 130.4 36.6 130 39H131C125.5 42 113.166 46.7409 110 48.5C105.5 51 91 50 89 50C87 50 82 53 82 53L80 35Z"
      fill="#A3A3A3" />
    <path
      d="M84 33C88 31.5 97.4 27.1 103 21.5C105.167 19.1667 109.8 14.5 111 14.5C112.5 14.5 117.177 14.7156 116 15.5M116 15.5C114.5 16.5 112.667 18.8334 110.5 20M116 15.5C117.333 14.5 120.7 12.7 123.5 13.5C127 14.5 133 17 132.5 20M132.5 20C127.5 19 123.2 19 118 23M132.5 20C135.833 22.3333 142 27.2 140 28C137.5 29 135.5 28 134 26.5C132.667 26.3333 129.9 25.8 129.5 25C127.5 26 123.3 27.9 122.5 27.5C120.333 29.6667 115.8 34.1 115 34.5C115.167 35.5 115.4 37.5 115 37.5M115 37.5C113.333 37.3333 109.8 37.1 109 37.5M115 37.5C115 37.5 117 38 118 37.5C119 37 123 35.5 125.5 35.5C127.5 35.5 130.4 36.6 130 39H131C125.5 42 113.166 46.7409 110 48.5C105.5 51 94 50 89 50"
      stroke="black" stroke-width="0.5" stroke-linecap="round" stroke-linejoin="round" />
  </g>
  <g filter="url(#filter1_f_2_3674)">
    <path
      d="M29.473 106.079C28.0507 111.659 26.6283 116.2 25.2059 119.701C23.7836 123.257 22.2518 126.047 20.6106 128.071C18.9694 130.095 17.2188 131.49 15.3588 132.256C13.4441 133.022 11.3105 133.405 8.95818 133.405C6.66052 133.405 4.77315 132.803 3.29608 131.599C1.81901 130.396 1.08048 128.919 1.08048 127.168C1.08048 125.801 1.43607 124.706 2.14725 123.886C2.85843 123.12 3.84314 122.737 5.10139 122.737C6.25022 122.737 7.04346 123.038 7.48111 123.64C7.91876 124.241 8.3017 124.898 8.62994 125.609C8.90347 126.32 9.23171 126.977 9.61465 127.579C9.9976 128.18 10.7361 128.481 11.8303 128.481C13.0885 128.481 14.2373 127.825 15.2768 126.512C16.3162 125.199 17.1094 123.476 17.6565 121.342L29.5551 75.1425H21.6774L22.7442 71.3678H30.5398C31.7433 66.4442 33.0563 62.2592 34.4787 58.8127C35.901 55.3662 37.4328 52.5489 39.074 50.3606C40.7152 48.1176 42.4658 46.5038 44.3258 45.5191C46.1858 44.4797 48.1826 43.96 50.3161 43.96C53.5438 43.96 56.197 44.6438 58.2759 46.0115C60.3547 47.3244 61.3941 48.9929 61.3941 51.0171C61.3941 52.2753 61.0385 53.3421 60.3274 54.2174C59.6709 55.0927 58.7135 55.5303 57.4553 55.5303C56.4159 55.5303 55.5953 55.3389 54.9935 54.9559C54.4464 54.573 54.0088 54.0806 53.6806 53.4789C53.407 52.8771 53.1882 52.248 53.0241 51.5915C52.9147 50.935 52.7505 50.3059 52.5317 49.7041C52.3129 49.1024 51.9847 48.61 51.547 48.2271C51.1094 47.8441 50.4529 47.6526 49.5776 47.6526C48.4835 47.6526 47.3893 48.2544 46.2952 49.4579C45.2558 50.6068 44.2437 52.248 43.259 54.3815C42.2743 56.4604 41.3443 58.9495 40.469 61.8489C39.5937 64.7484 38.8004 67.9213 38.0893 71.3678H46.3773L45.2284 75.1425H37.1866L29.473 106.079ZM79.2818 72.0243C77.9689 72.0243 76.4644 72.7081 74.7685 74.0758C73.1274 75.3887 71.4315 77.1667 69.6809 79.4096C67.985 81.5979 66.3438 84.1144 64.7573 86.9591C63.1708 89.8038 61.8305 92.7033 60.7364 95.6574L54.664 112.069H47.4428L53.5152 93.2777C54.4999 90.2688 55.3205 87.6976 55.9769 85.5641C56.6334 83.4305 57.1531 81.6526 57.5361 80.2302C57.9737 78.7532 58.2746 77.577 58.4387 76.7017C58.6028 75.7717 58.6849 75.0331 58.6849 74.4861C58.6849 73.009 58.2199 72.2705 57.2899 72.2705C56.6881 72.2705 55.9769 72.6534 55.1563 73.4193C54.3357 74.1852 53.4878 75.1972 52.6125 76.4555C51.7919 77.659 50.9987 79.054 50.2328 80.6405C49.4669 82.227 48.8104 83.8408 48.2634 85.482L45.8016 84.2511C47.7163 78.6164 49.8498 74.4587 52.2022 71.7781C54.6093 69.0975 57.3446 67.7572 60.4081 67.7572C62.1587 67.7572 63.3896 68.2496 64.1008 69.2343C64.8667 70.219 65.2496 71.8875 65.2496 74.2399C65.2496 77.0299 64.7846 79.519 63.8546 81.7073L64.1008 81.9535C66.8908 77.0299 69.7082 73.4466 72.5529 71.2037C75.4524 68.906 78.598 67.7572 81.9898 67.7572C84.3968 67.7572 86.2295 68.3316 87.4877 69.4804C88.746 70.6293 89.3751 72.2705 89.3751 74.404C89.3751 75.1152 89.2931 75.9084 89.1289 76.7837C89.0195 77.659 88.8007 78.7258 88.4725 79.984C88.1442 81.1876 87.6792 82.6373 87.0775 84.3332C86.5304 86.0291 85.8466 88.1079 85.026 90.5697C83.7677 94.2897 82.7283 97.408 81.9077 99.9245C81.0871 102.441 80.6768 104.219 80.6768 105.258C80.6768 106.079 80.9503 106.489 81.4974 106.489C82.2633 106.489 83.3848 105.86 84.8618 104.602C86.3389 103.344 88.3357 101.319 90.8522 98.5295L92.9857 99.6783C92.1104 101.319 90.9616 102.933 89.5392 104.52C88.1716 106.052 86.7219 107.447 85.1901 108.705C83.713 109.963 82.2359 110.975 80.7589 111.741C79.2818 112.507 77.9962 112.89 76.9021 112.89C75.5344 112.89 74.4403 112.288 73.6197 111.085C72.8538 109.881 72.4709 108.295 72.4709 106.325C72.4709 105.559 72.5256 104.793 72.635 104.027C72.7991 103.207 73.1 102.058 73.5376 100.581C73.9753 99.1039 74.6044 97.1345 75.425 94.6727C76.3003 92.1562 77.4765 88.8465 78.9536 84.7435C79.4459 83.3211 79.8562 82.1176 80.1845 81.1329C80.5127 80.1482 80.7589 79.3002 80.923 78.589C81.1418 77.8231 81.2786 77.1667 81.3333 76.6196C81.4427 76.0725 81.4974 75.5528 81.4974 75.0605C81.4974 73.0363 80.7589 72.0243 79.2818 72.0243ZM131.55 118.06C131.55 120.412 131.03 122.518 129.991 124.378C129.006 126.293 127.556 127.907 125.642 129.22C123.782 130.587 121.511 131.627 118.831 132.338C116.15 133.049 113.141 133.405 109.804 133.405C106.795 133.405 104.06 133.131 101.598 132.584C99.1363 132.037 97.0301 131.244 95.2795 130.204C93.4742 129.165 92.1066 127.934 91.1766 126.512C90.1919 125.144 89.6995 123.585 89.6995 121.834C89.6995 119.591 90.438 117.731 91.9151 116.254C93.3375 114.777 95.1701 114.039 97.4131 114.039C98.0696 114.039 98.6987 114.121 99.3005 114.285C99.9022 114.449 100.668 114.75 101.598 115.188C98.5346 116.446 97.0028 118.825 97.0028 122.327C97.0028 124.624 98.1516 126.43 100.449 127.743C102.802 129.056 106.002 129.712 110.05 129.712C112.238 129.712 114.263 129.466 116.123 128.974C117.983 128.481 119.569 127.852 120.882 127.086C122.25 126.32 123.289 125.445 124 124.46C124.766 123.53 125.149 122.6 125.149 121.67C125.149 120.138 124.219 118.743 122.359 117.485C120.554 116.282 117.983 115.379 114.646 114.777C108.683 113.738 104.306 112.534 101.516 111.167C98.726 109.799 97.331 107.884 97.331 105.422C97.331 103.836 98.0149 102.496 99.3825 101.402C100.805 100.307 103.321 99.2133 106.932 98.1192L107.096 97.7909C102.938 94.8368 100.86 91.0347 100.86 86.3847C100.86 83.8682 101.379 81.4885 102.419 79.2455C103.458 76.9478 104.853 74.9511 106.604 73.2552C108.409 71.5046 110.488 70.1369 112.84 69.1522C115.247 68.1675 117.764 67.6751 120.39 67.6751C124.438 67.6751 127.83 69.1522 130.565 72.1063C133.136 69.2069 135.625 67.7572 138.032 67.7572C139.783 67.7572 141.315 68.3043 142.628 69.3984C143.941 70.4378 144.597 71.6687 144.597 73.0911C144.597 74.1852 144.214 75.1152 143.448 75.8811C142.737 76.5923 141.835 76.9478 140.74 76.9478C139.92 76.9478 139.263 76.7837 138.771 76.4555C138.333 76.0725 137.95 75.6623 137.622 75.2246C137.294 74.787 136.911 74.404 136.473 74.0758C136.09 73.6928 135.543 73.5014 134.832 73.5014C134.449 73.5014 134.094 73.5834 133.765 73.7475C133.437 73.8569 132.835 74.2125 131.96 74.8143C132.234 75.5802 132.425 76.3187 132.535 77.0299C132.644 77.6864 132.699 78.5343 132.699 79.5737C132.699 85.5914 131.03 90.4056 127.693 94.0162C124.356 97.5721 119.761 99.5689 113.907 100.007C111.281 100.225 109.394 100.554 108.245 100.991C107.151 101.429 106.604 102.085 106.604 102.961C106.604 104.11 107.206 104.985 108.409 105.587C109.667 106.134 111.226 106.599 113.086 106.982C114.946 107.365 116.943 107.747 119.077 108.13C121.21 108.513 123.207 109.088 125.067 109.854C126.927 110.565 128.459 111.55 129.662 112.808C130.921 114.121 131.55 115.871 131.55 118.06ZM114.317 96.3959C115.63 96.3959 116.916 95.8762 118.174 94.8368C119.432 93.7974 120.554 92.4297 121.539 90.7338C122.578 88.9832 123.399 87.0138 124 84.8256C124.602 82.6373 124.903 80.3943 124.903 78.0967C124.903 75.9084 124.411 74.1852 123.426 72.9269C122.441 71.614 121.156 70.9575 119.569 70.9575C118.311 70.9575 117.025 71.5319 115.712 72.6808C114.399 73.7749 113.196 75.1972 112.102 76.9478C111.062 78.6984 110.214 80.6952 109.558 82.9382C108.901 85.1264 108.573 87.2873 108.573 89.4209C108.573 91.4997 109.093 93.1956 110.132 94.5086C111.172 95.7668 112.567 96.3959 114.317 96.3959ZM142.694 79.984C143.296 78.6164 144.198 77.2214 145.402 75.799C146.66 74.3219 148 73.009 149.423 71.8602C150.9 70.6566 152.377 69.6719 153.854 68.906C155.331 68.1401 156.617 67.7572 157.711 67.7572C159.024 67.7572 159.981 68.2496 160.583 69.2343C161.185 70.219 161.485 71.8055 161.485 73.9937C161.485 74.869 161.431 75.717 161.321 76.5376C161.267 77.3581 161.13 78.3155 160.911 79.4096L161.157 79.6558C161.814 78.0693 162.744 76.5102 163.947 74.9784C165.151 73.4466 166.436 72.1063 167.804 70.9575C169.226 69.754 170.649 68.7966 172.071 68.0854C173.548 67.3195 174.916 66.9366 176.174 66.9366C177.761 66.9366 179.074 67.4563 180.113 68.4957C181.207 69.4804 181.754 70.7113 181.754 72.1884C181.754 73.6108 181.289 74.787 180.359 75.717C179.484 76.647 178.335 77.112 176.913 77.112C176.037 77.112 175.326 76.9478 174.779 76.6196C174.287 76.2914 173.849 75.9631 173.466 75.6349C173.083 75.252 172.728 74.8964 172.399 74.5681C172.071 74.2399 171.661 74.0758 171.168 74.0758C170.129 74.0758 168.926 74.787 167.558 76.2093C166.19 77.577 164.768 79.4643 163.291 81.8714C161.814 84.2785 160.337 87.0959 158.86 90.3235C157.437 93.5512 156.124 97.025 154.921 100.745L151.228 112.069H143.597L148.93 95.083C149.97 91.8006 150.818 89.0926 151.474 86.9591C152.185 84.7708 152.732 82.9655 153.115 81.5432C153.498 80.0661 153.745 78.9173 153.854 78.0967C154.018 77.2761 154.1 76.5649 154.1 75.9631C154.1 74.7596 153.69 74.1578 152.869 74.1578C152.322 74.1578 151.638 74.3767 150.818 74.8143C150.052 75.252 149.286 75.799 148.52 76.4555C147.754 77.112 147.016 77.8505 146.304 78.6711C145.648 79.4917 145.156 80.2849 144.827 81.0508L142.694 79.984ZM213.83 72.0243C212.517 72.0243 211.013 72.7081 209.317 74.0758C207.676 75.3887 205.98 77.1667 204.229 79.4096C202.534 81.5979 200.892 84.1144 199.306 86.9591C197.719 89.8038 196.379 92.7033 195.285 95.6574L189.213 112.069H181.991L188.064 93.2777C189.048 90.2688 189.869 87.6976 190.526 85.5641C191.182 83.4305 191.702 81.6526 192.085 80.2302C192.522 78.7532 192.823 77.577 192.987 76.7017C193.151 75.7717 193.233 75.0331 193.233 74.4861C193.233 73.009 192.768 72.2705 191.838 72.2705C191.237 72.2705 190.526 72.6534 189.705 73.4193C188.884 74.1852 188.036 75.1972 187.161 76.4555C186.34 77.659 185.547 79.054 184.781 80.6405C184.015 82.227 183.359 83.8408 182.812 85.482L180.35 84.2511C182.265 78.6164 184.398 74.4587 186.751 71.7781C189.158 69.0975 191.893 67.7572 194.957 67.7572C196.707 67.7572 197.938 68.2496 198.649 69.2343C199.415 70.219 199.798 71.8875 199.798 74.2399C199.798 77.0299 199.333 79.519 198.403 81.7073L198.649 81.9535C201.439 77.0299 204.257 73.4466 207.102 71.2037C210.001 68.906 213.147 67.7572 216.538 67.7572C218.945 67.7572 220.778 68.3316 222.036 69.4804C223.295 70.6293 223.924 72.2705 223.924 74.404C223.924 75.1152 223.842 75.9084 223.678 76.7837C223.568 77.659 223.349 78.7258 223.021 79.984C222.693 81.1876 222.228 82.6373 221.626 84.3332C221.079 86.0291 220.395 88.1079 219.575 90.5697C218.316 94.2897 217.277 97.408 216.456 99.9245C215.636 102.441 215.225 104.219 215.225 105.258C215.225 106.079 215.499 106.489 216.046 106.489C216.812 106.489 217.933 105.86 219.41 104.602C220.887 103.344 222.884 101.319 225.401 98.5295L227.534 99.6783C226.659 101.319 225.51 102.933 224.088 104.52C222.72 106.052 221.27 107.447 219.739 108.705C218.262 109.963 216.785 110.975 215.307 111.741C213.83 112.507 212.545 112.89 211.451 112.89C210.083 112.89 208.989 112.288 208.168 111.085C207.402 109.881 207.019 108.295 207.019 106.325C207.019 105.559 207.074 104.793 207.184 104.027C207.348 103.207 207.649 102.058 208.086 100.581C208.524 99.1039 209.153 97.1345 209.974 94.6727C210.849 92.1562 212.025 88.8465 213.502 84.7435C213.995 83.3211 214.405 82.1176 214.733 81.1329C215.061 80.1482 215.307 79.3002 215.472 78.589C215.69 77.8231 215.827 77.1667 215.882 76.6196C215.991 76.0725 216.046 75.5528 216.046 75.0605C216.046 73.0363 215.307 72.0243 213.83 72.0243ZM266.098 118.06C266.098 120.412 265.579 122.518 264.539 124.378C263.555 126.293 262.105 127.907 260.19 129.22C258.33 130.587 256.06 131.627 253.379 132.338C250.699 133.049 247.69 133.405 244.353 133.405C241.344 133.405 238.608 133.131 236.147 132.584C233.685 132.037 231.579 131.244 229.828 130.204C228.023 129.165 226.655 127.934 225.725 126.512C224.74 125.144 224.248 123.585 224.248 121.834C224.248 119.591 224.987 117.731 226.464 116.254C227.886 114.777 229.719 114.039 231.962 114.039C232.618 114.039 233.247 114.121 233.849 114.285C234.451 114.449 235.217 114.75 236.147 115.188C233.083 116.446 231.551 118.825 231.551 122.327C231.551 124.624 232.7 126.43 234.998 127.743C237.35 129.056 240.551 129.712 244.599 129.712C246.787 129.712 248.811 129.466 250.671 128.974C252.531 128.481 254.118 127.852 255.431 127.086C256.798 126.32 257.838 125.445 258.549 124.46C259.315 123.53 259.698 122.6 259.698 121.67C259.698 120.138 258.768 118.743 256.908 117.485C255.102 116.282 252.531 115.379 249.194 114.777C243.231 113.738 238.855 112.534 236.065 111.167C233.275 109.799 231.88 107.884 231.88 105.422C231.88 103.836 232.563 102.496 233.931 101.402C235.353 100.307 237.87 99.2133 241.481 98.1192L241.645 97.7909C237.487 94.8368 235.408 91.0347 235.408 86.3847C235.408 83.8682 235.928 81.4885 236.967 79.2455C238.007 76.9478 239.402 74.9511 241.152 73.2552C242.958 71.5046 245.036 70.1369 247.389 69.1522C249.796 68.1675 252.312 67.6751 254.938 67.6751C258.987 67.6751 262.378 69.1522 265.114 72.1063C267.685 69.2069 270.174 67.7572 272.581 67.7572C274.332 67.7572 275.863 68.3043 277.176 69.3984C278.489 70.4378 279.146 71.6687 279.146 73.0911C279.146 74.1852 278.763 75.1152 277.997 75.8811C277.286 76.5923 276.383 76.9478 275.289 76.9478C274.468 76.9478 273.812 76.7837 273.32 76.4555C272.882 76.0725 272.499 75.6623 272.171 75.2246C271.843 74.787 271.46 74.404 271.022 74.0758C270.639 73.6928 270.092 73.5014 269.381 73.5014C268.998 73.5014 268.642 73.5834 268.314 73.7475C267.986 73.8569 267.384 74.2125 266.509 74.8143C266.782 75.5802 266.974 76.3187 267.083 77.0299C267.192 77.6864 267.247 78.5343 267.247 79.5737C267.247 85.5914 265.579 90.4056 262.242 94.0162C258.904 97.5721 254.309 99.5689 248.456 100.007C245.83 100.225 243.942 100.554 242.793 100.991C241.699 101.429 241.152 102.085 241.152 102.961C241.152 104.11 241.754 104.985 242.958 105.587C244.216 106.134 245.775 106.599 247.635 106.982C249.495 107.365 251.492 107.747 253.625 108.13C255.759 108.513 257.756 109.088 259.616 109.854C261.476 110.565 263.007 111.55 264.211 112.808C265.469 114.121 266.098 115.871 266.098 118.06ZM248.866 96.3959C250.179 96.3959 251.464 95.8762 252.723 94.8368C253.981 93.7974 255.102 92.4297 256.087 90.7338C257.127 88.9832 257.947 87.0138 258.549 84.8256C259.151 82.6373 259.452 80.3943 259.452 78.0967C259.452 75.9084 258.959 74.1852 257.974 72.9269C256.99 71.614 255.704 70.9575 254.118 70.9575C252.859 70.9575 251.574 71.5319 250.261 72.6808C248.948 73.7749 247.744 75.1972 246.65 76.9478C245.611 78.6984 244.763 80.6952 244.106 82.9382C243.45 85.1264 243.122 87.2873 243.122 89.4209C243.122 91.4997 243.641 93.1956 244.681 94.5086C245.72 95.7668 247.115 96.3959 248.866 96.3959Z"
      fill="#59626E" />
  </g>
  <g filter="url(#filter2_f_2_3674)">
    <path
      d="M288.584 54.956H288.038C287.986 54.4013 287.847 54.0287 287.622 53.838C287.414 53.6473 287.041 53.552 286.504 53.552C286.001 53.552 285.681 53.578 285.542 53.63C285.403 53.6647 285.334 53.7513 285.334 53.89V59.194C285.334 59.6447 285.412 59.9653 285.568 60.156C285.724 60.3467 286.097 60.4507 286.686 60.468V60.988H282.5V60.468C283.089 60.4333 283.462 60.3293 283.618 60.156C283.774 59.9653 283.852 59.6447 283.852 59.194V53.89C283.852 53.7513 283.791 53.6647 283.67 53.63C283.549 53.578 283.263 53.552 282.812 53.552C282.587 53.552 282.37 53.5693 282.162 53.604C281.971 53.6213 281.798 53.6733 281.642 53.76C281.503 53.8467 281.391 53.9853 281.304 54.176C281.217 54.3667 281.165 54.6267 281.148 54.956H280.628V52.98H288.48L288.584 54.956ZM294.512 58.856L297.06 52.98H299.66V53.5C299.209 53.5173 298.923 53.63 298.802 53.838C298.681 54.0287 298.62 54.4447 298.62 55.086V58.882C298.62 59.2287 298.629 59.506 298.646 59.714C298.681 59.922 298.733 60.078 298.802 60.182C298.889 60.286 299.01 60.364 299.166 60.416C299.322 60.4507 299.521 60.468 299.764 60.468V60.988H296.254V60.468C296.514 60.468 296.713 60.4507 296.852 60.416C297.008 60.364 297.121 60.286 297.19 60.182C297.277 60.078 297.329 59.9307 297.346 59.74C297.381 59.5493 297.398 59.2893 297.398 58.96V54.28H297.294L294.252 61.092H294.044L291.106 54.28H291.002V58.882C291.002 59.2287 291.011 59.506 291.028 59.714C291.063 59.922 291.115 60.078 291.184 60.182C291.271 60.286 291.392 60.364 291.548 60.416C291.704 60.4507 291.903 60.468 292.146 60.468V60.988H289.104V60.468C289.347 60.468 289.546 60.4507 289.702 60.416C289.858 60.364 289.971 60.286 290.04 60.182C290.127 60.078 290.179 59.9307 290.196 59.74C290.231 59.5493 290.248 59.2893 290.248 58.96V55.008C290.248 54.4187 290.187 54.0287 290.066 53.838C289.945 53.6473 289.659 53.5347 289.208 53.5V52.98H291.964L294.408 58.856H294.512Z"
      fill="#59626E" />
  </g>
  <defs>
    <filter id="filter0_f_2_3674" x="79" y="0.178955" width="129.831" height="82.821" filterUnits="userSpaceOnUse"
      color-interpolation-filters="sRGB">
      <feFlood flood-opacity="0" result="BackgroundImageFix" />
      <feBlend mode="normal" in="SourceGraphic" in2="BackgroundImageFix" result="shape" />
      <feGaussianBlur stdDeviation="0.4" result="effect1_foregroundBlur_2_3674" />
    </filter>
    <filter id="filter1_f_2_3674" x="0.225689" y="43.1052" width="279.775" height="91.1543" filterUnits="userSpaceOnUse"
      color-interpolation-filters="sRGB">
      <feFlood flood-opacity="0" result="BackgroundImageFix" />
      <feBlend mode="normal" in="SourceGraphic" in2="BackgroundImageFix" result="shape" />
      <feGaussianBlur stdDeviation="0.3" result="effect1_foregroundBlur_2_3674" />
    </filter>
    <filter id="filter2_f_2_3674" x="279.773" y="52.1252" width="20.8456" height="9.82157" filterUnits="userSpaceOnUse"
      color-interpolation-filters="sRGB">
      <feFlood flood-opacity="0" result="BackgroundImageFix" />
      <feBlend mode="normal" in="SourceGraphic" in2="BackgroundImageFix" result="shape" />
      <feGaussianBlur stdDeviation="0.427393" result="effect1_foregroundBlur_2_3674" />
    </filter>
  </defs>
</svg>